<svg width="16" height="11" viewBox="0 0 16 11" fill="none" xmlns="http://www.w3.org/2000/svg">
<g filter="url(#filter0_d_1_149)">
<mask id="path-1-inside-1_1_149" fill="white">
<path d="M12.998 0.326L8.00001 5.198L3.00202 0.326C2.91272 0.23877 2.79284 0.189934 2.66801 0.189934C2.54319 0.189934 2.42331 0.23877 2.33402 0.326C2.29078 0.368364 2.25643 0.41893 2.23298 0.474736C2.20953 0.530542 2.19745 0.590467 2.19745 0.651C2.19745 0.711532 2.20953 0.771457 2.23298 0.827263C2.25643 0.883069 2.29078 0.933635 2.33402 0.975999L7.65101 6.16C7.74439 6.25101 7.86962 6.30195 8.00001 6.30195C8.13041 6.30195 8.25564 6.25101 8.34901 6.16L13.666 0.977C13.7096 0.934604 13.7442 0.883914 13.7678 0.827922C13.7914 0.771931 13.8036 0.711773 13.8036 0.651C13.8036 0.590226 13.7914 0.530067 13.7678 0.474076C13.7442 0.418085 13.7096 0.367395 13.666 0.324999C13.5767 0.23777 13.4568 0.188934 13.332 0.188934C13.2072 0.188934 13.0873 0.23777 12.998 0.324999V0.326Z"/>
</mask>
<path d="M12.998 0.326L8.00001 5.198L3.00202 0.326C2.91272 0.23877 2.79284 0.189934 2.66801 0.189934C2.54319 0.189934 2.42331 0.23877 2.33402 0.326C2.29078 0.368364 2.25643 0.41893 2.23298 0.474736C2.20953 0.530542 2.19745 0.590467 2.19745 0.651C2.19745 0.711532 2.20953 0.771457 2.23298 0.827263C2.25643 0.883069 2.29078 0.933635 2.33402 0.975999L7.65101 6.16C7.74439 6.25101 7.86962 6.30195 8.00001 6.30195C8.13041 6.30195 8.25564 6.25101 8.34901 6.16L13.666 0.977C13.7096 0.934604 13.7442 0.883914 13.7678 0.827922C13.7914 0.771931 13.8036 0.711773 13.8036 0.651C13.8036 0.590226 13.7914 0.530067 13.7678 0.474076C13.7442 0.418085 13.7096 0.367395 13.666 0.324999C13.5767 0.23777 13.4568 0.188934 13.332 0.188934C13.2072 0.188934 13.0873 0.23777 12.998 0.324999V0.326Z" fill="#303030" fill-opacity="0.8" shape-rendering="crispEdges"/>
<path d="M12.998 0.326L13.696 1.04208L13.998 0.747711V0.326H12.998ZM8.00001 5.198L7.30199 5.91407L8.00001 6.5945L8.69804 5.91407L8.00001 5.198ZM3.00202 0.326L2.30322 1.04133L2.30399 1.04208L3.00202 0.326ZM2.66801 0.189934V-0.810066V0.189934ZM2.33402 0.326L1.63522 -0.389327L1.63416 -0.388286L2.33402 0.326ZM2.19745 0.651L3.19745 0.651L2.19745 0.651ZM2.33402 0.975999L1.63416 1.69029L1.63592 1.692L2.33402 0.975999ZM7.65101 6.16L6.95292 6.876L6.95301 6.8761L7.65101 6.16ZM8.34901 6.16L9.04701 6.8761L9.04704 6.87607L8.34901 6.16ZM13.666 0.977L12.9684 0.260516L12.968 0.260927L13.666 0.977ZM13.666 0.324999L12.9672 1.04033L12.9684 1.04148L13.666 0.324999ZM13.332 0.188934V1.18893V0.188934ZM12.998 0.324999L12.2992 -0.390327L11.998 -0.0960805V0.324999H12.998ZM12.3 -0.390076L7.30199 4.48192L8.69804 5.91407L13.696 1.04208L12.3 -0.390076ZM8.69804 4.48192L3.70004 -0.390076L2.30399 1.04208L7.30199 5.91407L8.69804 4.48192ZM3.70081 -0.389327C3.42469 -0.659056 3.05401 -0.810066 2.66801 -0.810066L2.66801 1.18993C2.53168 1.18993 2.40075 1.1366 2.30322 1.04133L3.70081 -0.389327ZM2.66801 -0.810066C2.28202 -0.810066 1.91134 -0.659056 1.63522 -0.389327L3.03281 1.04133C2.93528 1.1366 2.80435 1.18993 2.66801 1.18993V-0.810066ZM1.63416 -0.388286C1.4959 -0.252816 1.38605 -0.0911175 1.31106 0.0873433L3.15489 0.862128C3.1268 0.928977 3.08566 0.989544 3.03387 1.04029L1.63416 -0.388286ZM1.31106 0.0873433C1.23607 0.265802 1.19745 0.457428 1.19745 0.651L3.19745 0.651C3.19745 0.723505 3.18298 0.795282 3.15489 0.862128L1.31106 0.0873433ZM1.19745 0.651C1.19745 0.844572 1.23607 1.0362 1.31106 1.21466L3.15489 0.43987C3.18298 0.506715 3.19745 0.578493 3.19745 0.651L1.19745 0.651ZM1.31106 1.21466C1.38605 1.39311 1.4959 1.55481 1.63416 1.69029L3.03387 0.261714C3.08566 0.312457 3.1268 0.373025 3.15489 0.43987L1.31106 1.21466ZM1.63592 1.692L6.95292 6.876L8.34911 5.44399L3.03211 0.259994L1.63592 1.692ZM6.95301 6.8761C7.23313 7.14914 7.60884 7.30195 8.00001 7.30195V5.30195C8.13041 5.30195 8.25564 5.35289 8.34901 5.4439L6.95301 6.8761ZM8.00001 7.30195C8.39119 7.30195 8.7669 7.14914 9.04701 6.8761L7.65101 5.4439C7.74439 5.35289 7.86962 5.30195 8.00001 5.30195V7.30195ZM9.04704 6.87607L14.364 1.69307L12.968 0.260927L7.65099 5.44393L9.04704 6.87607ZM14.3636 1.69348C14.5029 1.55791 14.6135 1.39581 14.6891 1.21676L12.8465 0.43908C12.8748 0.372017 12.9163 0.3113 12.9684 0.260516L14.3636 1.69348ZM14.6891 1.21676C14.7647 1.03771 14.8036 0.845335 14.8036 0.651H12.8036C12.8036 0.578212 12.8182 0.506154 12.8465 0.43908L14.6891 1.21676ZM14.8036 0.651C14.8036 0.456666 14.7647 0.264291 14.6891 0.0852344L12.8465 0.862918C12.8182 0.795844 12.8036 0.723786 12.8036 0.651H14.8036ZM14.6891 0.0852344C14.6135 -0.0938147 14.5029 -0.25591 14.3636 -0.391484L12.9684 1.04148C12.9163 0.990701 12.8748 0.929985 12.8465 0.862918L14.6891 0.0852344ZM14.3648 -0.390327C14.0887 -0.660059 13.718 -0.811066 13.332 -0.811066V1.18893C13.1957 1.18893 13.0648 1.1356 12.9672 1.04033L14.3648 -0.390327ZM13.332 -0.811066C12.946 -0.811066 12.5753 -0.660058 12.2992 -0.390327L13.6968 1.04033C13.5993 1.1356 13.4684 1.18893 13.332 1.18893L13.332 -0.811066ZM11.998 0.324999V0.326H13.998V0.324999H11.998Z" fill="black" mask="url(#path-1-inside-1_1_149)"/>
</g>
<defs>
<filter id="filter0_d_1_149" x="-1.80255" y="0.188934" width="19.6061" height="14.113" filterUnits="userSpaceOnUse" color-interpolation-filters="sRGB">
<feFlood flood-opacity="0" result="BackgroundImageFix"/>
<feColorMatrix in="SourceAlpha" type="matrix" values="0 0 0 0 0 0 0 0 0 0 0 0 0 0 0 0 0 0 127 0" result="hardAlpha"/>
<feOffset dy="4"/>
<feGaussianBlur stdDeviation="2"/>
<feComposite in2="hardAlpha" operator="out"/>
<feColorMatrix type="matrix" values="0 0 0 0 0 0 0 0 0 0 0 0 0 0 0 0 0 0 0.25 0"/>
<feBlend mode="normal" in2="BackgroundImageFix" result="effect1_dropShadow_1_149"/>
<feBlend mode="normal" in="SourceGraphic" in2="effect1_dropShadow_1_149" result="shape"/>
</filter>
</defs>
</svg>
